<svg width="1280" height="720" xmlns="http://www.w3.org/2000/svg" xmlns:xlink="http://www.w3.org/1999/xlink" overflow="hidden"><defs><clipPath id="clip0"><path d="M0 0 1280 0 1280 720 0 720Z" fill-rule="evenodd" clip-rule="evenodd"/></clipPath></defs><g clip-path="url(#clip0)"><rect x="0" y="0" width="1280" height="720" fill="#FFFFFF"/><text fill="#ED7D31" font-family="Calibri,Calibri_MSFontService,sans-serif" font-weight="300" font-size="24" transform="translate(7.67832 382)">Dato_1</text><rect x="164.5" y="19.5001" width="919" height="645" stroke="#000000" stroke-width="1.33333" stroke-miterlimit="8" fill="none"/><text fill="#548235" font-family="Calibri,Calibri_MSFontService,sans-serif" font-weight="300" font-size="24" transform="translate(4.61879 426)">Dato_2<tspan fill="#7030A0" x="2.14047" y="-330">clk</tspan><tspan fill="#4472C4" font-size="21" x="3.80378" y="209">Selector</tspan></text><path d="M0 0 14.9504 14.7615" stroke="#000000" stroke-width="1.33333" stroke-miterlimit="8" fill="none" fill-rule="evenodd" transform="matrix(1 0 0 -1 107.5 426.262)"/><path d="M0 0 14.9504 14.7615" stroke="#000000" stroke-width="1.33333" stroke-miterlimit="8" fill="none" fill-rule="evenodd" transform="matrix(1 0 0 -1 106.5 383.262)"/><text fill="#ED7D31" font-family="Calibri,Calibri_MSFontService,sans-serif" font-style="italic" font-weight="400" font-size="20" transform="translate(95.7307 369)">16</text><path d="M0 0 14.9504 14.7615" stroke="#000000" stroke-width="1.33333" stroke-miterlimit="8" fill="none" fill-rule="evenodd" transform="matrix(1 0 0 -1 104.5 636.262)"/><text fill="#002060" font-family="Calibri,Calibri_MSFontService,sans-serif" font-weight="300" font-size="21" transform="translate(6.75937 65)">Enable</text><rect x="369.5" y="271.5" width="194" height="97" stroke="#000000" stroke-miterlimit="8" fill="#FFFFFF"/><text font-family="Calibri,Calibri_MSFontService,sans-serif" font-weight="300" font-size="21" transform="translate(442.42 327)">Suma</text><rect x="369.5" y="378.5" width="194" height="47" stroke="#000000" stroke-miterlimit="8" fill="#FFFFFF"/><text fill="#00000A" font-family="Calibri,Calibri_MSFontService,sans-serif" font-weight="300" font-size="19" transform="translate(415.755 397)">L贸gica de dos <tspan x="7.72668" y="23">operadores</tspan></text><rect x="370.5" y="204.5" width="194" height="62" stroke="#000000" stroke-miterlimit="8" fill="#FFFFFF"/><text font-family="Calibri,Calibri_MSFontService,sans-serif" font-weight="300" font-size="19" transform="translate(413.169 246)">Multiplicaci贸n</text><path d="M0-0.5 189.047-0.5C189.324-0.5 189.547-0.276142 189.547 0L189.547 134.15 189.047 133.65 273.425 133.65 273.425 134.65 189.047 134.65C188.771 134.65 188.547 134.426 188.547 134.15L188.547 0 189.047 0.5 0 0.5ZM265.677 129.051 274.418 134.15 265.677 139.248C265.439 139.388 265.133 139.307 264.994 139.069 264.854 138.83 264.935 138.524 265.173 138.385L273.173 133.718 273.173 134.582 265.173 129.915C264.935 129.776 264.854 129.47 264.994 129.231 265.133 128.993 265.439 128.912 265.677 129.051Z" fill="#ED7D31" transform="matrix(1 0 0 -1 96.5001 374.65)"/><path d="M0-0.5 203.355-0.5C203.631-0.5 203.855-0.276142 203.855 0L203.855 163.507 203.355 163.007 275.161 163.007 275.161 164.007 203.355 164.007C203.079 164.007 202.855 163.783 202.855 163.507L202.855 0 203.355 0.5 0 0.5ZM267.413 158.408 276.153 163.507 267.413 168.605C267.175 168.744 266.868 168.664 266.729 168.425 266.59 168.187 266.671 167.881 266.909 167.741L274.909 163.075 274.909 163.939 266.909 159.272C266.671 159.133 266.59 158.827 266.729 158.588 266.868 158.35 267.175 158.269 267.413 158.408Z" fill="#70AD47" transform="matrix(1 0 0 -1 92.5001 419.007)"/><text fill="#548235" font-family="Calibri,Calibri_MSFontService,sans-serif" font-style="italic" font-weight="400" font-size="20" transform="translate(91.8195 416)">16</text><path d="M285.502 285 367.937 285.333 367.933 286.333 285.498 286ZM360.207 280.704 368.927 285.837 360.166 290.901C359.927 291.039 359.621 290.957 359.483 290.718 359.345 290.479 359.427 290.173 359.666 290.035L367.685 285.4 367.681 286.264 359.7 281.565C359.462 281.425 359.383 281.119 359.523 280.881 359.663 280.643 359.969 280.563 360.207 280.704Z" fill="#ED7D31"/><path d="M295.5 300 367.902 300 367.902 301 295.5 301ZM360.154 295.402 368.895 300.5 360.154 305.599C359.916 305.738 359.61 305.657 359.47 305.419 359.331 305.18 359.412 304.874 359.65 304.735L367.65 300.068 367.65 300.932 359.65 296.265C359.412 296.126 359.331 295.82 359.471 295.582 359.61 295.343 359.916 295.262 360.154 295.402Z" fill="#70AD47"/><path d="M295.5 345 366.956 345 366.956 346 295.5 346ZM359.208 340.402 367.948 345.5 359.208 350.599C358.969 350.738 358.663 350.657 358.524 350.419 358.385 350.18 358.465 349.874 358.704 349.735L366.704 345.068 366.704 345.932 358.704 341.265C358.465 341.126 358.385 340.82 358.524 340.582 358.663 340.343 358.969 340.262 359.208 340.402Z" fill="#70AD47"/><text fill="#FF0000" font-family="Calibri,Calibri_MSFontService,sans-serif" font-weight="300" font-size="19" transform="translate(7.67832 123)">Enable_ALU</text><path d="M109.5 119 367.58 119 367.58 120 109.5 120ZM359.833 114.402 368.574 119.5 359.833 124.599C359.595 124.738 359.289 124.657 359.15 124.419 359.011 124.18 359.091 123.874 359.33 123.735L367.33 119.068 367.33 119.932 359.33 115.265C359.091 115.126 359.011 114.82 359.15 114.582 359.289 114.343 359.595 114.262 359.833 114.402Z" fill="#FF0000"/><path d="M692.5 204.5 814.5 235 814.5 556 692.5 586.5Z" stroke="#181717" stroke-miterlimit="8" fill="none" fill-rule="evenodd"/><path d="M0-0.5 664.737-0.5C665.013-0.5 665.237-0.276142 665.237 0L665.237 57.228 664.237 57.228 664.237 0 664.737 0.5 0 0.5ZM669.836 49.48 664.737 58.2204 659.639 49.48C659.499 49.2415 659.58 48.9353 659.818 48.7962 660.057 48.657 660.363 48.7376 660.502 48.9761L665.169 56.9761 664.305 56.9761 668.972 48.9761C669.111 48.7376 669.417 48.657 669.656 48.7962 669.894 48.9353 669.975 49.2415 669.836 49.48Z" fill="#5B9BD5" transform="matrix(1 0 0 -1 89.5001 628.718)"/><text fill="#0070C0" font-family="Calibri,Calibri_MSFontService,sans-serif" font-style="italic" font-weight="400" font-size="20" transform="translate(101.834 625)">3</text><path d="M564.5 254.167 692.336 254.167 692.336 254.833 564.5 254.833ZM684.504 249.546 692.998 254.5 684.504 259.455C684.345 259.547 684.141 259.494 684.049 259.335 683.956 259.176 684.009 258.972 684.168 258.879L692.168 254.212 692.168 254.788 684.168 250.121C684.009 250.029 683.956 249.825 684.049 249.666 684.141 249.507 684.345 249.453 684.504 249.546Z" fill="#A5A5A5"/><path d="M564.5 306.167 692.25 306.167 692.25 306.833 564.5 306.833ZM684.419 301.546 692.912 306.5 684.419 311.455C684.26 311.548 684.055 311.494 683.963 311.335 683.87 311.176 683.924 310.972 684.083 310.879L692.083 306.212 692.083 306.788 684.083 302.121C683.924 302.029 683.87 301.825 683.963 301.666 684.055 301.507 684.26 301.453 684.419 301.546Z" fill="#A5A5A5"/><path d="M564.5 361.167 691.995 361.167 691.995 361.833 564.5 361.833ZM684.164 356.546 692.657 361.5 684.164 366.455C684.005 366.548 683.801 366.494 683.708 366.335 683.615 366.176 683.669 365.972 683.828 365.879L691.828 361.212 691.828 361.788 683.828 357.121C683.669 357.029 683.615 356.825 683.708 356.666 683.801 356.507 684.005 356.453 684.164 356.546Z" fill="#A5A5A5"/><path d="M564.5 388.167 692.292 388.167 692.292 388.833 564.5 388.833ZM684.461 383.546 692.954 388.5 684.461 393.455C684.302 393.548 684.098 393.494 684.005 393.335 683.912 393.176 683.966 392.972 684.125 392.879L692.125 388.212 692.125 388.788 684.125 384.121C683.966 384.029 683.912 383.825 684.005 383.666 684.098 383.507 684.302 383.453 684.461 383.546Z" fill="#A5A5A5"/><path d="M0 0 14.9504 14.7615" stroke="#000000" stroke-width="1.33333" stroke-miterlimit="8" fill="none" fill-rule="evenodd" transform="matrix(1 0 0 -1 577.5 396.262)"/><path d="M0 0 14.9504 14.7615" stroke="#000000" stroke-width="1.33333" stroke-miterlimit="8" fill="none" fill-rule="evenodd" transform="matrix(1 0 0 -1 576.5 367.262)"/><path d="M0 0 14.9504 14.7615" stroke="#000000" stroke-width="1.33333" stroke-miterlimit="8" fill="none" fill-rule="evenodd" transform="matrix(1 0 0 -1 576.5 314.262)"/><path d="M0 0 14.9504 14.7615" stroke="#000000" stroke-width="1.33333" stroke-miterlimit="8" fill="none" fill-rule="evenodd" transform="matrix(1 0 0 -1 577.5 261.262)"/><text fill="#A6A6A6" font-family="Calibri,Calibri_MSFontService,sans-serif" font-style="italic" font-weight="300" font-size="16" transform="translate(566.224 249)">16<tspan x="-0.766418" y="52">16</tspan><tspan x="-1.44537" y="105">16</tspan><tspan x="-0.766418" y="137">16</tspan><tspan fill="#000000" font-style="normal" font-size="21" x="158.113" y="148">MUX 1</tspan></text><path d="M109.5 83.0001 285.759 83.0001C286.035 83.0001 286.259 83.2239 286.259 83.5001L286.259 224.817 285.759 224.317 368.23 224.317 368.23 225.317 285.759 225.317C285.483 225.317 285.259 225.093 285.259 224.817L285.259 83.5001 285.759 84.0001 109.5 84.0001ZM360.482 219.718 369.223 224.817 360.482 229.915C360.244 230.054 359.938 229.974 359.798 229.735 359.659 229.497 359.74 229.191 359.978 229.052L367.978 224.385 367.978 225.249 359.978 220.582C359.74 220.443 359.659 220.137 359.798 219.898 359.938 219.66 360.244 219.579 360.482 219.718Z" fill="#7030A0"/><rect x="369.5" y="437.5" width="195" height="70" stroke="#000000" stroke-miterlimit="8" fill="#FFFFFF"/><text fill="#00000A" font-family="Calibri,Calibri_MSFontService,sans-serif" font-weight="300" font-size="19" transform="translate(379.076 467)">L贸gica sobre uno de los <tspan x="44.5934" y="23">operadores</tspan></text><path d="M0-0.5 103.048-0.5C103.324-0.5 103.548-0.276142 103.548 0L103.548 83.0959 102.548 83.0959 102.548 0 103.048 0.5 0 0.5ZM108.147 75.3479 103.048 84.0883 97.9494 75.3479C97.8103 75.1094 97.8908 74.8032 98.1294 74.6641 98.3679 74.5249 98.6741 74.6055 98.8132 74.844L103.48 82.844 102.616 82.844 107.283 74.844C107.422 74.6055 107.728 74.5249 107.967 74.6641 108.205 74.8032 108.286 75.1094 108.147 75.3479Z" fill="#ED7D31" transform="matrix(-4.37114e-08 1 1 4.37114e-08 285.5 359.5)"/><path d="M564.5 413.167 691.995 413.167 691.995 413.833 564.5 413.833ZM684.164 408.546 692.657 413.5 684.164 418.455C684.005 418.548 683.801 418.494 683.708 418.335 683.615 418.176 683.669 417.972 683.828 417.879L691.828 413.212 691.828 413.788 683.828 409.121C683.669 409.029 683.615 408.825 683.708 408.666 683.801 408.507 684.005 408.453 684.164 408.546Z" fill="#A5A5A5"/><path d="M0 0 14.9504 14.7615" stroke="#000000" stroke-width="1.33333" stroke-miterlimit="8" fill="none" fill-rule="evenodd" transform="matrix(1 0 0 -1 578.5 422.262)"/><text fill="#A6A6A6" font-family="Calibri,Calibri_MSFontService,sans-serif" font-style="italic" font-weight="300" font-size="16" transform="translate(565.458 411)">16</text><path d="M564.5 451.167 691.995 451.167 691.995 451.833 564.5 451.833ZM684.164 446.546 692.657 451.5 684.164 456.455C684.005 456.548 683.801 456.494 683.708 456.335 683.615 456.176 683.669 455.972 683.828 455.879L691.828 451.212 691.828 451.788 683.828 447.121C683.669 447.029 683.615 446.825 683.708 446.666 683.801 446.507 684.005 446.453 684.164 446.546Z" fill="#A5A5A5"/><path d="M0 0 14.9504 14.7615" stroke="#000000" stroke-width="1.33333" stroke-miterlimit="8" fill="none" fill-rule="evenodd" transform="matrix(1 0 0 -1 577.5 460.262)"/><text fill="#A6A6A6" font-family="Calibri,Calibri_MSFontService,sans-serif" font-style="italic" font-weight="300" font-size="16" transform="translate(565.873 448)">16</text><path d="M285.5 331 367.826 331 367.826 332 285.5 332ZM360.078 326.402 368.819 331.5 360.078 336.599C359.84 336.738 359.534 336.657 359.395 336.419 359.255 336.18 359.336 335.874 359.575 335.735L367.575 331.068 367.575 331.932 359.575 327.265C359.336 327.126 359.255 326.82 359.395 326.582 359.534 326.343 359.84 326.262 360.078 326.402Z" fill="#ED7D31"/><path d="M285.5 393 367.113 393 367.113 394 285.5 394ZM359.365 388.402 368.105 393.5 359.365 398.599C359.127 398.738 358.82 398.657 358.681 398.419 358.542 398.18 358.623 397.874 358.861 397.735L366.861 393.068 366.861 393.932 358.861 389.265C358.623 389.126 358.542 388.82 358.681 388.582 358.82 388.343 359.127 388.262 359.365 388.402Z" fill="#ED7D31"/><path d="M295.5 410 366.956 410 366.956 411 295.5 411ZM359.208 405.402 367.948 410.5 359.208 415.599C358.969 415.738 358.663 415.657 358.524 415.419 358.385 415.18 358.465 414.874 358.704 414.735L366.704 410.068 366.704 410.932 358.704 406.265C358.465 406.126 358.385 405.82 358.524 405.582 358.663 405.343 358.969 405.262 359.208 405.402Z" fill="#70AD47"/><path d="M564.5 475.167 691.995 475.167 691.995 475.833 564.5 475.833ZM684.164 470.546 692.657 475.5 684.164 480.455C684.005 480.548 683.801 480.494 683.708 480.335 683.615 480.176 683.669 479.972 683.828 479.879L691.828 475.212 691.828 475.788 683.828 471.121C683.669 471.029 683.615 470.825 683.708 470.666 683.801 470.507 684.005 470.453 684.164 470.546Z" fill="#A5A5A5"/><path d="M0 0 14.9504 14.7615" stroke="#000000" stroke-width="1.33333" stroke-miterlimit="8" fill="none" fill-rule="evenodd" transform="matrix(1 0 0 -1 577.5 483.262)"/><text fill="#A6A6A6" font-family="Calibri,Calibri_MSFontService,sans-serif" font-style="italic" font-weight="300" font-size="16" transform="translate(565.104 473)">16</text><path d="M564.5 499.167 692.081 499.167 692.081 499.833 564.5 499.833ZM684.25 494.546 692.743 499.5 684.25 504.455C684.09 504.548 683.886 504.494 683.794 504.335 683.701 504.176 683.755 503.972 683.914 503.879L691.914 499.212 691.914 499.788 683.914 495.121C683.755 495.029 683.701 494.825 683.794 494.666 683.886 494.507 684.09 494.453 684.25 494.546Z" fill="#A5A5A5"/><path d="M0 0 14.9504 14.7615" stroke="#000000" stroke-width="1.33333" stroke-miterlimit="8" fill="none" fill-rule="evenodd" transform="matrix(1 0 0 -1 577.5 507.262)"/><text fill="#A6A6A6" font-family="Calibri,Calibri_MSFontService,sans-serif" font-style="italic" font-weight="300" font-size="16" transform="translate(565.018 497)">16</text><rect x="369.5" y="516.5" width="195" height="70" stroke="#000000" stroke-miterlimit="8" fill="#FFFFFF"/><text font-family="Calibri,Calibri_MSFontService,sans-serif" font-weight="300" font-size="19" transform="translate(430.43 546)">Resta con <tspan x="-27.5867" y="23">complemento a2</tspan></text><path d="M0-0.5 132.881-0.5C133.157-0.5 133.381-0.276142 133.381 0L133.381 72.8275 132.381 72.8275 132.381 0 132.881 0.5 0 0.5ZM137.979 65.0795 132.881 73.8198 127.782 65.0795C127.643 64.8409 127.724 64.5348 127.962 64.3956 128.201 64.2565 128.507 64.3371 128.646 64.5756L133.313 72.5756 132.449 72.5756 137.115 64.5756C137.255 64.3371 137.561 64.2565 137.799 64.3956 138.038 64.5348 138.118 64.8409 137.979 65.0795Z" fill="#70AD47" transform="matrix(-4.37114e-08 1 1 4.37114e-08 295.5 418.5)"/><path d="M285.5 463 285.801 463C286.077 463 286.301 463.224 286.301 463.5L286.301 537.62 285.801 537.12 369.113 537.12 369.113 538.12 285.801 538.12C285.525 538.12 285.301 537.897 285.301 537.62L285.301 463.5 285.801 464 285.5 464ZM361.365 532.522 370.105 537.62 361.365 542.719C361.126 542.858 360.82 542.778 360.681 542.539 360.542 542.301 360.622 541.994 360.861 541.855L368.861 537.189 368.861 538.052 360.861 533.386C360.622 533.247 360.542 532.94 360.681 532.702 360.82 532.463 361.126 532.383 361.365 532.522Z" fill="#ED7D31"/><path d="M564.5 565.167 691.995 565.167 691.995 565.833 564.5 565.833ZM684.164 560.546 692.657 565.5 684.164 570.455C684.005 570.547 683.801 570.494 683.708 570.335 683.615 570.176 683.669 569.972 683.828 569.879L691.828 565.212 691.828 565.788 683.828 561.121C683.669 561.029 683.615 560.825 683.708 560.666 683.801 560.507 684.005 560.453 684.164 560.546Z" fill="#A5A5A5"/><path d="M0 0 14.9504 14.7615" stroke="#000000" stroke-width="1.33333" stroke-miterlimit="8" fill="none" fill-rule="evenodd" transform="matrix(1 0 0 -1 576.5 575.262)"/><text fill="#A6A6A6" font-family="Calibri,Calibri_MSFontService,sans-serif" font-style="italic" font-weight="300" font-size="16" transform="translate(564.779 562)">16</text><path d="M1059.5 391.833 1197.85 391.833 1197.85 393.167 1059.5 393.167ZM1190.19 387.258 1199.18 392.5 1190.19 397.743C1189.87 397.928 1189.46 397.821 1189.28 397.503 1189.09 397.185 1189.2 396.776 1189.52 396.591L1197.52 391.924 1197.52 393.076 1189.52 388.409C1189.2 388.224 1189.09 387.816 1189.28 387.498 1189.46 387.18 1189.87 387.072 1190.19 387.258Z" fill="#C261E9"/><path d="M1059.5 423.833 1197.85 423.833 1197.85 425.167 1059.5 425.167ZM1190.19 419.258 1199.18 424.5 1190.19 429.743C1189.87 429.928 1189.46 429.821 1189.28 429.503 1189.09 429.185 1189.2 428.776 1189.52 428.591L1197.52 423.924 1197.52 425.076 1189.52 420.409C1189.2 420.224 1189.09 419.816 1189.28 419.498 1189.46 419.18 1189.87 419.072 1190.19 419.258Z" fill="#29C1BA"/><path d="M0 0 14.9504 14.7615" stroke="#000000" stroke-width="1.33333" stroke-miterlimit="8" fill="none" fill-rule="evenodd" transform="matrix(1 0 0 -1 1163.5 399.262)"/><text fill="#C261E9" font-family="Calibri,Calibri_MSFontService,sans-serif" font-style="italic" font-weight="300" font-size="21" transform="translate(1157.26 389)">1</text><path d="M0 0 14.9504 14.7615" stroke="#000000" stroke-width="1.33333" stroke-miterlimit="8" fill="none" fill-rule="evenodd" transform="matrix(1 0 0 -1 1161.5 431.262)"/><text fill="#29C1BA" font-family="Calibri,Calibri_MSFontService,sans-serif" font-style="italic" font-weight="300" font-size="21" transform="translate(1159.08 421)">1</text><path d="M109.5 56.0001 300.365 56.0001C300.641 56.0001 300.865 56.2239 300.865 56.5001L300.865 206.685 300.365 206.185 367.517 206.185 367.517 207.185 300.365 207.185C300.089 207.185 299.865 206.961 299.865 206.685L299.865 56.5001 300.365 57.0001 109.5 57.0001ZM359.769 201.586 368.509 206.685 359.769 211.784C359.53 211.923 359.224 211.842 359.085 211.604 358.946 211.365 359.026 211.059 359.265 210.92L367.265 206.253 367.265 207.117 359.265 202.45C359.026 202.311 358.946 202.005 359.085 201.766 359.224 201.528 359.53 201.447 359.769 201.586Z" fill="#002060"/><rect x="370.5" y="97.5001" width="194" height="69" stroke="#000000" stroke-miterlimit="8" fill="#FFFFFF"/><text font-family="Calibri,Calibri_MSFontService,sans-serif" font-weight="300" font-size="19" transform="translate(439.192 136)">Control</text><path d="M300.5 134 368.621 134 368.621 135 300.5 135ZM360.873 129.402 369.613 134.5 360.873 139.599C360.634 139.738 360.328 139.657 360.189 139.419 360.05 139.18 360.13 138.874 360.369 138.735L368.369 134.068 368.369 134.932 360.369 130.265C360.13 130.126 360.05 129.82 360.189 129.582 360.328 129.343 360.634 129.262 360.873 129.402Z" fill="#002060"/><path d="M285.5 149 369.404 149 369.404 150 285.5 150ZM361.656 144.402 370.397 149.5 361.656 154.599C361.418 154.738 361.112 154.657 360.972 154.419 360.833 154.18 360.914 153.874 361.152 153.735L369.152 149.068 369.152 149.932 361.152 145.265C360.914 145.126 360.833 144.82 360.972 144.582 361.112 144.343 361.418 144.262 361.656 144.402Z" fill="#7030A0"/><path d="M423.833 166.5 423.833 203.53 423.167 203.53 423.167 166.5ZM428.455 195.698 423.5 204.191 418.546 195.698C418.453 195.539 418.507 195.335 418.666 195.242 418.825 195.149 419.029 195.203 419.121 195.362L423.788 203.362 423.212 203.362 427.879 195.362C427.972 195.203 428.176 195.149 428.335 195.242 428.494 195.335 428.547 195.539 428.455 195.698Z" fill="#A5A5A5"/><path d="M0 0 14.9504 14.7615" stroke="#000000" stroke-width="1.33333" stroke-miterlimit="8" fill="none" fill-rule="evenodd" transform="matrix(1 0 0 -1 416.5 194.262)"/><text fill="#A6A6A6" font-family="Calibri,Calibri_MSFontService,sans-serif" font-style="italic" font-weight="300" font-size="16" transform="translate(414.607 186)">1</text><path d="M0.333333-9.64286e-07 0.333436 35.6318-0.33323 35.6318-0.333333 9.64286e-07ZM4.95467 27.7997 0.000104949 36.2933-4.95451 27.7997C-5.04727 27.6407-4.99356 27.4366-4.83454 27.3438-4.67553 27.2511-4.47142 27.3048-4.37866 27.4638L0.288029 35.4638-0.287824 35.4638 4.37882 27.4638C4.47158 27.3048 4.67568 27.2511 4.8347 27.3438 4.99372 27.4366 5.04743 27.6407 4.95467 27.7997Z" fill="#A5A5A5" transform="matrix(1 0 0 -1 496.5 203.792)"/><path d="M0 0 14.9504 14.7615" stroke="#000000" stroke-width="1.33333" stroke-miterlimit="8" fill="none" fill-rule="evenodd" transform="matrix(1 0 0 -1 490.5 200.262)"/><text fill="#A6A6A6" font-family="Calibri,Calibri_MSFontService,sans-serif" font-style="italic" font-weight="300" font-size="16" transform="translate(486.638 192)">1</text><path d="M0 0 14.9504 14.7615" stroke="#000000" stroke-width="1.33333" stroke-miterlimit="8" fill="none" fill-rule="evenodd" transform="matrix(1 0 0 -1 575.5 287.262)"/><text fill="#C00000" font-family="Calibri,Calibri_MSFontService,sans-serif" font-style="italic" font-weight="300" font-size="16" transform="translate(572.248 275)">1</text><path d="M0-0.666667 55.0223-0.666667C55.3905-0.666667 55.689-0.36819 55.689 0L55.689 97.913 55.0223 97.2463 235.642 97.2463 235.642 98.5796 55.0223 98.5796C54.6542 98.5796 54.3557 98.2812 54.3557 97.913L54.3557 0 55.0223 0.666667 0 0.666667ZM227.977 92.6704 236.964 97.913 227.977 103.155C227.658 103.341 227.25 103.234 227.065 102.916 226.879 102.598 226.987 102.189 227.305 102.004L235.305 97.3371 235.305 98.4888 227.305 93.8222C226.987 93.6366 226.879 93.2284 227.065 92.9104 227.25 92.5923 227.658 92.4849 227.977 92.6704Z" fill="#2938CB" transform="matrix(1 0 0 -1 564.5 226.413)"/><text fill="#C261E9" font-family="Calibri,Calibri_MSFontService,sans-serif" font-weight="300" font-size="19" transform="translate(1197.24 383)">Z<tspan fill="#29C1BA" x="0.878662" y="33">N</tspan><tspan fill="#2938CB" font-style="italic" font-size="16" x="-623.915" y="-160">3</tspan></text><path d="M0 0 14.9504 14.7615" stroke="#000000" stroke-width="1.33333" stroke-miterlimit="8" fill="none" fill-rule="evenodd" transform="matrix(1 0 0 -1 577.5 233.262)"/><path d="M801.5 92.5001 881.5 112.5 881.5 172.5 801.5 192.5Z" stroke="#181717" stroke-miterlimit="8" fill="none" fill-rule="evenodd"/><text font-family="Calibri,Calibri_MSFontService,sans-serif" font-weight="300" font-size="21" transform="translate(811.46 154)">MUX 2</text><path d="M0-0.666667 69.1594-0.666667C69.5275-0.666667 69.826-0.36819 69.826 0L69.826 188.24 69.1594 187.574 233.932 187.574 233.932 188.907 69.1594 188.907C68.7912 188.907 68.4927 188.609 68.4927 188.24L68.4927 0 69.1594 0.666667 0 0.666667ZM226.268 182.998 235.255 188.24 226.268 193.483C225.95 193.668 225.542 193.561 225.356 193.243 225.171 192.925 225.278 192.517 225.596 192.331L233.596 187.665 233.596 188.816 225.596 184.15C225.278 183.964 225.171 183.556 225.356 183.238 225.542 182.92 225.95 182.812 226.268 182.998Z" fill="#FFD966" transform="matrix(1 0 0 -1 564.5 335.74)"/><text fill="#BF9000" font-family="Calibri,Calibri_MSFontService,sans-serif" font-style="italic" font-weight="300" font-size="16" transform="translate(573.475 333)">3</text><path d="M0 0 14.9504 14.7615" stroke="#000000" stroke-width="1.33333" stroke-miterlimit="8" fill="none" fill-rule="evenodd" transform="matrix(1 0 0 -1 578.5 342.262)"/><path d="M563.5 537.425 563.5 535.931 647.674 535.931 647.674 167.5" stroke="#FB0DFF" stroke-width="1.33333" stroke-miterlimit="8" fill="none" fill-rule="evenodd"/><path d="M647.5 166.833 800.132 166.833 800.132 168.167 647.5 168.167ZM792.468 162.258 801.455 167.5 792.468 172.743C792.15 172.928 791.741 172.821 791.556 172.503 791.37 172.185 791.478 171.776 791.796 171.591L799.796 166.924 799.796 168.076 791.796 163.409C791.478 163.224 791.37 162.816 791.556 162.498 791.741 162.18 792.15 162.072 792.468 162.258Z" fill="#FB0DFF"/><text fill="#FB0DFF" font-family="Calibri,Calibri_MSFontService,sans-serif" font-style="italic" font-weight="300" font-size="16" transform="translate(572.079 531)">3</text><path d="M0 0 14.9504 14.7615" stroke="#000000" stroke-width="1.33333" stroke-miterlimit="8" fill="none" fill-rule="evenodd" transform="matrix(1 0 0 -1 576.5 542.262)"/><path d="M701.5 107.833 800.431 107.833 800.431 109.167 701.5 109.167ZM792.766 103.258 801.753 108.5 792.766 113.743C792.448 113.928 792.04 113.821 791.854 113.503 791.669 113.185 791.776 112.776 792.094 112.591L800.094 107.924 800.094 109.076 792.094 104.409C791.776 104.224 791.669 103.816 791.854 103.498 792.04 103.18 792.448 103.072 792.766 103.258Z" fill="#404040"/><text fill="#3B3838" font-family="Calibri,Calibri_MSFontService,sans-serif" font-style="italic" font-weight="300" font-size="16" transform="translate(656.977 114)">(000)</text><path d="M0 0 14.9504 14.7615" stroke="#000000" stroke-width="1.33333" stroke-miterlimit="8" fill="none" fill-rule="evenodd" transform="matrix(1 0 0 -1 715.5 115.262)"/><text fill="#3B3838" font-family="Calibri,Calibri_MSFontService,sans-serif" font-style="italic" font-weight="300" font-size="16" transform="translate(713.486 105)">3</text><rect x="909.5" y="278.5" width="150" height="222" stroke="#000000" stroke-miterlimit="8" fill="#FFFFFF"/><text font-family="Calibri,Calibri_MSFontService,sans-serif" font-weight="300" font-size="19" transform="translate(918.88 393)">Almacenamiento </text><path d="M0 0 14.9504 14.7615" stroke="#000000" stroke-width="1.33333" stroke-miterlimit="8" fill="none" fill-rule="evenodd" transform="matrix(1 0 0 -1 885.5 155.262)"/><text fill="#A6A6A6" font-family="Calibri,Calibri_MSFontService,sans-serif" font-style="italic" font-weight="300" font-size="16" transform="translate(884.42 144)">3</text><path d="M1059.5 361.833 1197.85 361.833 1197.85 363.167 1059.5 363.167ZM1190.19 357.258 1199.18 362.5 1190.19 367.743C1189.87 367.928 1189.46 367.821 1189.28 367.503 1189.09 367.185 1189.2 366.776 1189.52 366.591L1197.52 361.924 1197.52 363.076 1189.52 358.409C1189.2 358.224 1189.09 357.816 1189.28 357.498 1189.46 357.18 1189.87 357.072 1190.19 357.258Z" fill="#FFC000"/><path d="M0 0 14.9504 14.7615" stroke="#000000" stroke-width="1.33333" stroke-miterlimit="8" fill="none" fill-rule="evenodd" transform="matrix(1 0 0 -1 1163.5 369.262)"/><text fill="#FFC000" font-family="Calibri,Calibri_MSFontService,sans-serif" font-style="italic" font-weight="300" font-size="21" transform="translate(1157.26 358)">1<tspan font-style="normal" font-size="19" x="37.0945" y="-3">O</tspan></text><rect x="777.5" y="613.5" width="119" height="34" stroke="#000000" stroke-miterlimit="8" fill="#FFFFFF"/><text font-family="Calibri,Calibri_MSFontService,sans-serif" font-weight="300" font-size="19" transform="translate(795.421 636)">Separaci贸n </text><path d="M753.5 628 776.726 628 776.726 629 753.5 629ZM768.978 623.402 777.718 628.5 768.978 633.599C768.74 633.738 768.433 633.657 768.294 633.419 768.155 633.18 768.236 632.874 768.474 632.735L776.474 628.068 776.474 628.932 768.474 624.265C768.236 624.126 768.155 623.82 768.294 623.582 768.433 623.343 768.74 623.262 768.978 623.402Z" fill="#5B9BD5"/><path d="M0.333314-0.00361196 5.00711 431.298 4.34049 431.305-0.333314 0.00361196ZM9.54354 423.445 4.68128 431.991-0.365063 423.552C-0.459541 423.394-0.408044 423.189-0.250041 423.095-0.0920381 423 0.112638 423.052 0.207116 423.21L4.9602 431.159 4.38438 431.165 8.96408 423.115C9.05511 422.955 9.25863 422.899 9.41864 422.99 9.57865 423.081 9.63457 423.285 9.54354 423.445Z" fill="#AFABAB" transform="matrix(1 0 0 -1 837.5 614.49)"/><path d="M0 0 14.9504 14.7615" stroke="#000000" stroke-width="1.33333" stroke-miterlimit="8" fill="none" fill-rule="evenodd" transform="matrix(1 0 0 -1 828.5 589.262)"/><text fill="#3B3838" font-family="Calibri,Calibri_MSFontService,sans-serif" font-style="italic" font-weight="300" font-size="16" transform="translate(823.992 581)">2</text><path d="M1057.51 488 1183.12 490.199 1183.1 491.198 1057.49 489ZM1175.45 485.465 1184.1 490.716 1175.27 495.661C1175.03 495.796 1174.73 495.71 1174.59 495.469 1174.46 495.228 1174.54 494.923 1174.78 494.788L1182.86 490.262 1182.85 491.126 1174.93 486.32C1174.7 486.177 1174.62 485.869 1174.76 485.633 1174.91 485.397 1175.22 485.322 1175.45 485.465Z" fill="#8EC840"/><path d="M0 0 14.9504 14.7615" stroke="#000000" stroke-width="1.33333" stroke-miterlimit="8" fill="none" fill-rule="evenodd" transform="matrix(1 0 0 -1 1106.5 496.262)"/><text fill="#8EC840" font-family="Calibri,Calibri_MSFontService,sans-serif" font-style="italic" font-weight="300" font-size="21" transform="translate(1084.5 485)">16<tspan x="60.6886" y="-7">Result</tspan></text><path d="M0 0 14.9504 14.7615" stroke="#000000" stroke-width="1.33333" stroke-miterlimit="8" fill="none" fill-rule="evenodd" transform="matrix(1 0 0 -1 121.5 125.262)"/><text fill="#FF0000" font-family="Calibri,Calibri_MSFontService,sans-serif" font-style="italic" font-weight="300" font-size="21" transform="translate(114.582 115)">1</text><path d="M0 0 14.9504 14.7615" stroke="#000000" stroke-width="1.33333" stroke-miterlimit="8" fill="none" fill-rule="evenodd" transform="matrix(1 0 0 -1 128.5 62.2615)"/><text fill="#002060" font-family="Calibri,Calibri_MSFontService,sans-serif" font-style="italic" font-weight="300" font-size="21" transform="translate(121.775 50)">1</text><path d="M0 0 14.9504 14.7615" stroke="#000000" stroke-width="1.33333" stroke-miterlimit="8" fill="none" fill-rule="evenodd" transform="matrix(1 0 0 -1 125.5 90.2615)"/><text fill="#7030A0" font-family="Calibri,Calibri_MSFontService,sans-serif" font-style="italic" font-weight="300" font-size="21" transform="translate(119.06 79)">1</text><path d="M0-0.666667 12.1628-0.666667C12.531-0.666667 12.8295-0.36819 12.8295 0L12.8295 81.8055 12.1628 81.1388 628.877 81.1388 628.877 82.4721 12.1628 82.4721C11.7946 82.4721 11.4961 82.1736 11.4961 81.8055L11.4961 0 12.1628 0.666667 0 0.666667ZM621.21 76.5629 630.197 81.8055 621.21 87.048C620.892 87.2335 620.484 87.1261 620.298 86.808 620.113 86.49 620.22 86.0818 620.538 85.8963L628.538 81.2296 628.538 82.3813 620.538 77.7146C620.22 77.5291 620.113 77.1209 620.298 76.8029 620.484 76.4848 620.892 76.3774 621.21 76.5629Z" fill="#9DC3E6" transform="matrix(1 0 0 -1 564.5 131.306)"/><path d="M0 0 14.9504 14.7615" stroke="#000000" stroke-width="1.33333" stroke-miterlimit="8" fill="none" fill-rule="evenodd" transform="matrix(1 0 0 -1 1098.5 56.2615)"/><text fill="#2E75B6" font-family="Calibri,Calibri_MSFontService,sans-serif" font-style="italic" font-weight="300" font-size="21" transform="translate(1087.77 44)">1<tspan x="71.8712" y="-6">Available</tspan></text><path d="M881.5 146.833 894.655 146.833C895.023 146.833 895.322 147.132 895.322 147.5L895.322 387.892 894.655 387.225 906.49 387.225 906.49 388.559 894.655 388.559C894.287 388.559 893.989 388.26 893.989 387.892L893.989 147.5 894.655 148.167 881.5 148.167ZM898.826 382.649 907.813 387.892 898.826 393.134C898.508 393.32 898.1 393.213 897.914 392.895 897.729 392.576 897.836 392.168 898.154 391.983L906.154 387.316 906.154 388.468 898.154 383.801C897.836 383.616 897.729 383.207 897.914 382.889 898.1 382.571 898.508 382.464 898.826 382.649Z" fill="#AFABAB"/><path d="M0 0 45.1642 0 45.1642 202.696 422.134 202.696" stroke="#C55A11" stroke-width="1.33333" stroke-miterlimit="8" fill="none" fill-rule="evenodd" transform="matrix(1 0 0 -1 563.5 277.196)"/><path d="M986.167 74.5001 986.167 275.875 984.833 275.875 984.833 74.5001ZM990.743 268.211 985.5 277.198 980.258 268.211C980.072 267.893 980.18 267.485 980.498 267.3 980.816 267.114 981.224 267.221 981.409 267.539L986.076 275.539 984.924 275.539 989.591 267.539C989.776 267.221 990.185 267.114 990.503 267.3 990.821 267.485 990.928 267.893 990.743 268.211Z" fill="#C55A11"/><path d="M1059.5 315.833 1197.85 315.833 1197.85 317.167 1059.5 317.167ZM1190.19 311.258 1199.18 316.5 1190.19 321.743C1189.87 321.928 1189.46 321.821 1189.28 321.503 1189.09 321.185 1189.2 320.776 1189.52 320.591L1197.52 315.924 1197.52 317.076 1189.52 312.409C1189.2 312.224 1189.09 311.816 1189.28 311.498 1189.46 311.18 1189.87 311.072 1190.19 311.258Z" fill="#FF0000"/><path d="M0 0 14.9504 14.7615" stroke="#000000" stroke-width="1.33333" stroke-miterlimit="8" fill="none" fill-rule="evenodd" transform="matrix(1 0 0 -1 1164.5 323.262)"/><text fill="#E60E65" font-family="Calibri,Calibri_MSFontService,sans-serif" font-style="italic" font-weight="300" font-size="21" transform="translate(1157.53 312)">1<tspan font-style="normal" font-size="19" x="36.2135" y="-8">C</tspan></text><path d="M815.5 420.833 907.493 420.833 907.493 422.167 815.5 422.167ZM899.828 416.258 908.816 421.5 899.828 426.743C899.51 426.928 899.102 426.821 898.917 426.503 898.731 426.185 898.839 425.776 899.157 425.591L907.157 420.924 907.157 422.076 899.157 417.409C898.839 417.224 898.731 416.816 898.917 416.498 899.102 416.18 899.51 416.072 899.828 416.258Z" fill="#404040"/><path d="M0 0 14.9504 14.7615" stroke="#000000" stroke-width="1.33333" stroke-miterlimit="8" fill="none" fill-rule="evenodd" transform="matrix(1 0 0 -1 822.5 428.262)"/><text fill="#3B3838" font-family="Calibri,Calibri_MSFontService,sans-serif" font-style="italic" font-weight="300" font-size="16" transform="translate(815.45 418)">1<tspan x="8.16669" y="0">6</tspan></text><path d="M0 0 0.000104987 463.522" stroke="#5B9BD5" stroke-miterlimit="8" fill="none" fill-rule="evenodd" transform="matrix(1 0 0 -1 207.5 629.022)"/><path d="M207.5 165 369.239 165 369.239 166 207.5 166ZM361.49 160.402 370.231 165.5 361.49 170.599C361.252 170.738 360.946 170.657 360.807 170.419 360.667 170.18 360.748 169.874 360.987 169.735L368.987 165.068 368.987 165.932 360.987 161.265C360.748 161.126 360.667 160.82 360.807 160.582 360.946 160.343 361.252 160.262 361.49 160.402Z" fill="#5B9BD5"/><path d="M0 0 29.4783 0 29.4783 97.2959 451.916 97.2959" stroke="#404040" stroke-width="1.33333" stroke-miterlimit="8" fill="none" fill-rule="evenodd" transform="matrix(1 0 0 -1 563.5 158.796)"/><path d="M1016.17 61.5001 1016.17 277.104 1014.83 277.104 1014.83 61.5001ZM1020.74 269.44 1015.5 278.427 1010.26 269.44C1010.07 269.121 1010.18 268.713 1010.5 268.528 1010.82 268.342 1011.22 268.45 1011.41 268.768L1016.08 276.768 1014.92 276.768 1019.59 268.768C1019.78 268.45 1020.18 268.342 1020.5 268.528 1020.82 268.713 1020.93 269.121 1020.74 269.44Z" fill="#262626"/><path d="M0 0 14.9504 14.7615" stroke="#000000" stroke-width="1.33333" stroke-miterlimit="8" fill="none" fill-rule="evenodd" transform="matrix(1 0 0 -1 575.5 164.262)"/><text fill="#262626" font-family="Calibri,Calibri_MSFontService,sans-serif" font-style="italic" font-weight="300" font-size="16" transform="translate(572.55 154)">1</text></g></svg>